<svg width="33" height="30" viewBox="0 0 33 30" fill="none" xmlns="http://www.w3.org/2000/svg">
<path d="M16.3638 3.83339C18.0492 1.43449 20.7957 0.00452392 23.7275 -3.8147e-06C28.5221 -3.8147e-06 32.7276 4.46089 32.7276 9.54554C32.7276 14.501 29.9295 19.6048 24.6325 24.3057C22.1804 26.4793 19.4904 28.3692 16.6142 29.9393C16.457 30.0202 16.2706 30.0202 16.1135 29.9393C13.2362 28.3692 10.5454 26.4795 8.09244 24.3057C2.79818 19.6048 3.73125e-05 14.501 3.73125e-05 9.54554C3.73125e-05 4.46089 4.20551 -3.8147e-06 9.00012 -3.8147e-06C11.932 0.00452392 14.6784 1.43449 16.3638 3.83339Z" fill="#FF5050"/>
</svg>
