<svg width="33" height="30" viewBox="0 0 33 30" fill="none" xmlns="http://www.w3.org/2000/svg">
<path d="M15.9547 4.12089L16.3638 4.70322L16.7729 4.12089C18.3648 1.8551 20.9588 0.504463 23.7279 0.500061C28.2189 0.500302 32.2276 4.70909 32.2276 9.5456C32.2276 14.3054 29.5376 19.2841 24.3006 23.9318C21.879 26.0783 19.2227 27.9449 16.3827 29.496C16.3706 29.5014 16.3569 29.5014 16.3448 29.496C13.5038 27.9449 10.8467 26.0786 8.42438 23.9319C3.18996 19.2842 0.5 14.3055 0.5 9.5456C0.5 4.70909 4.5087 0.500302 8.99969 0.500061C11.7688 0.504461 14.3628 1.8551 15.9547 4.12089ZM16.1222 29.2723L16.3638 29.4056L16.6054 29.2723C17.6233 28.7106 21.4832 26.4794 25.0952 23.061C28.6932 19.6558 32.1366 14.9857 32.1366 9.5456C32.1366 4.79764 28.2483 0.59098 23.7275 0.590979L23.7266 0.590981C20.7001 0.596346 17.9097 2.2246 16.4156 4.85535C16.4029 4.87033 16.3841 4.87928 16.3638 4.87928C16.3435 4.87928 16.3246 4.87032 16.3119 4.85533C14.8179 2.22459 12.0274 0.596346 9.00097 0.59098H9.00008C4.4793 0.59098 0.590919 4.79764 0.590919 9.5456C0.590919 14.9857 4.03438 19.6558 7.63239 23.061C11.2444 26.4794 15.1042 28.7106 16.1222 29.2723Z" fill="#D12929" stroke="#121212"/>
</svg>
